<?xml version="1.0" encoding="utf-8"?>
<!DOCTYPE score-partwise PUBLIC "-//Recordare//DTD MusicXML 3.0 Partwise//EN"
"http://www.musicxml.org/dtds/partwise.dtd" >
<score-partwise version="3.0">
	<identification>
		<encoding>
			<software>bach for Max v0.8.1 beta</software>
			<encoding-date>2020-10-25</encoding-date>
		</encoding>
	</identification>
	<defaults>
		<word-font font-family="Times New Roman" font-size="11" />
	</defaults>
	<part-list>
		<score-part id="P1">
			<part-name></part-name>
			<score-instrument id="P1-I1">
				<instrument-name>Grand Piano</instrument-name>
			</score-instrument>
		</score-part>
		<score-part id="P2">
			<part-name></part-name>
			<score-instrument id="P2-I2">
				<instrument-name>Grand Piano</instrument-name>
			</score-instrument>
		</score-part>
	</part-list>
	<part id="P1">
		<measure number="1">
			<attributes>
				<divisions>4</divisions>
				<key>
					<fifths>0</fifths>
					<mode>major</mode>
				</key>
				<time>
					<beats>4</beats>
					<beat-type>4</beat-type>
				</time>
				<clef number="1">
					<sign>G</sign>
					<line>2</line>
				</clef>
			</attributes>
			<direction>
				<direction-type>
					<metronome>
						<beat-unit>quarter</beat-unit>
						<per-minute>120</per-minute>
					</metronome>
				</direction-type>
				<offset sound="yes">0</offset>
				<sound tempo="120.000000" />
			</direction>
			<note>
				<pitch>
					<step>A</step>
					<alter>0</alter>
					<octave>5</octave>
				</pitch>
				<duration>16</duration>
				<type>whole</type>
				<notations>
					<articulations />
				</notations>
			</note>
		</measure>
		<measure number="2">
			<attributes>
				<divisions>4</divisions>
			</attributes>
			<note>
				<pitch>
					<step>F</step>
					<alter>1</alter>
					<octave>6</octave>
				</pitch>
				<duration>16</duration>
				<type>whole</type>
				<accidental>sharp</accidental>
				<notations>
					<articulations />
				</notations>
			</note>
		</measure>
		<measure number="3">
			<attributes>
				<divisions>4</divisions>
			</attributes>
			<note>
				<pitch>
					<step>D</step>
					<alter>0</alter>
					<octave>6</octave>
				</pitch>
				<duration>16</duration>
				<type>whole</type>
				<notations>
					<articulations />
				</notations>
			</note>
		</measure>
		<measure number="4">
			<attributes>
				<divisions>4</divisions>
			</attributes>
			<note>
				<pitch>
					<step>E</step>
					<alter>-1</alter>
					<octave>6</octave>
				</pitch>
				<duration>16</duration>
				<type>whole</type>
				<accidental>flat</accidental>
				<notations>
					<articulations />
				</notations>
			</note>
		</measure>
		<measure number="5">
			<attributes>
				<divisions>4</divisions>
			</attributes>
			<note>
				<pitch>
					<step>C</step>
					<alter>1</alter>
					<octave>6</octave>
				</pitch>
				<duration>16</duration>
				<type>whole</type>
				<accidental>sharp</accidental>
				<notations>
					<articulations />
				</notations>
			</note>
		</measure>
		<measure number="6">
			<attributes>
				<divisions>4</divisions>
			</attributes>
			<note>
				<pitch>
					<step>B</step>
					<alter>-1</alter>
					<octave>5</octave>
				</pitch>
				<duration>16</duration>
				<type>whole</type>
				<accidental>flat</accidental>
				<notations>
					<articulations />
				</notations>
			</note>
		</measure>
		<measure number="7">
			<attributes>
				<divisions>4</divisions>
			</attributes>
			<note>
				<pitch>
					<step>E</step>
					<alter>-1</alter>
					<octave>6</octave>
				</pitch>
				<duration>16</duration>
				<type>whole</type>
				<accidental>flat</accidental>
				<notations>
					<articulations />
				</notations>
			</note>
		</measure>
		<measure number="8">
			<attributes>
				<divisions>4</divisions>
			</attributes>
			<note>
				<pitch>
					<step>G</step>
					<alter>0</alter>
					<octave>6</octave>
				</pitch>
				<duration>16</duration>
				<type>whole</type>
				<notations>
					<articulations />
				</notations>
			</note>
		</measure>
		<measure number="9">
			<attributes>
				<divisions>4</divisions>
			</attributes>
			<note>
				<pitch>
					<step>A</step>
					<alter>-1</alter>
					<octave>6</octave>
				</pitch>
				<duration>16</duration>
				<type>whole</type>
				<accidental>flat</accidental>
				<notations>
					<articulations />
				</notations>
			</note>
		</measure>
		<measure number="10">
			<attributes>
				<divisions>4</divisions>
			</attributes>
			<note>
				<pitch>
					<step>E</step>
					<alter>-1</alter>
					<octave>6</octave>
				</pitch>
				<duration>16</duration>
				<type>whole</type>
				<accidental>flat</accidental>
				<notations>
					<articulations />
				</notations>
			</note>
		</measure>
		<measure number="11">
			<attributes>
				<divisions>4</divisions>
			</attributes>
			<note>
				<pitch>
					<step>B</step>
					<alter>-1</alter>
					<octave>5</octave>
				</pitch>
				<duration>16</duration>
				<type>whole</type>
				<accidental>flat</accidental>
				<notations>
					<articulations />
				</notations>
			</note>
		</measure>
		<measure number="12">
			<attributes>
				<divisions>4</divisions>
			</attributes>
			<note>
				<pitch>
					<step>G</step>
					<alter>0</alter>
					<octave>5</octave>
				</pitch>
				<duration>16</duration>
				<type>whole</type>
				<notations>
					<articulations />
				</notations>
			</note>
		</measure>
		<measure number="13">
			<attributes>
				<divisions>4</divisions>
			</attributes>
			<note>
				<pitch>
					<step>E</step>
					<alter>0</alter>
					<octave>6</octave>
				</pitch>
				<duration>16</duration>
				<type>whole</type>
				<notations>
					<articulations />
				</notations>
			</note>
		</measure>
		<measure number="14">
			<attributes>
				<divisions>4</divisions>
			</attributes>
			<note>
				<pitch>
					<step>F</step>
					<alter>1</alter>
					<octave>6</octave>
				</pitch>
				<duration>16</duration>
				<type>whole</type>
				<accidental>sharp</accidental>
				<notations>
					<articulations />
				</notations>
			</note>
		</measure>
		<measure number="15">
			<attributes>
				<divisions>4</divisions>
			</attributes>
			<note>
				<pitch>
					<step>E</step>
					<alter>0</alter>
					<octave>6</octave>
				</pitch>
				<duration>16</duration>
				<type>whole</type>
				<notations>
					<articulations />
				</notations>
			</note>
		</measure>
		<measure number="16">
			<attributes>
				<divisions>4</divisions>
			</attributes>
			<note>
				<pitch>
					<step>G</step>
					<alter>0</alter>
					<octave>6</octave>
				</pitch>
				<duration>16</duration>
				<type>whole</type>
				<notations>
					<articulations />
				</notations>
			</note>
		</measure>
		<measure number="17">
			<attributes>
				<divisions>4</divisions>
			</attributes>
			<note>
				<pitch>
					<step>G</step>
					<alter>0</alter>
					<octave>6</octave>
				</pitch>
				<duration>16</duration>
				<type>whole</type>
				<notations>
					<articulations />
				</notations>
			</note>
		</measure>
		<measure number="18">
			<attributes>
				<divisions>4</divisions>
			</attributes>
			<note>
				<pitch>
					<step>B</step>
					<alter>-1</alter>
					<octave>6</octave>
				</pitch>
				<duration>16</duration>
				<type>whole</type>
				<accidental>flat</accidental>
				<notations>
					<articulations />
				</notations>
			</note>
		</measure>
		<measure number="19">
			<attributes>
				<divisions>4</divisions>
			</attributes>
			<note>
				<pitch>
					<step>G</step>
					<alter>0</alter>
					<octave>6</octave>
				</pitch>
				<duration>16</duration>
				<type>whole</type>
				<notations>
					<articulations />
				</notations>
			</note>
		</measure>
		<measure number="20">
			<attributes>
				<divisions>4</divisions>
			</attributes>
			<note>
				<pitch>
					<step>B</step>
					<alter>-1</alter>
					<octave>6</octave>
				</pitch>
				<duration>16</duration>
				<type>whole</type>
				<accidental>flat</accidental>
				<notations>
					<articulations />
				</notations>
			</note>
		</measure>
		<measure number="21">
			<attributes>
				<divisions>4</divisions>
			</attributes>
			<note>
				<pitch>
					<step>G</step>
					<alter>0</alter>
					<octave>6</octave>
				</pitch>
				<duration>16</duration>
				<type>whole</type>
				<notations>
					<articulations />
				</notations>
			</note>
		</measure>
		<measure number="22">
			<attributes>
				<divisions>4</divisions>
			</attributes>
			<note>
				<pitch>
					<step>B</step>
					<alter>-1</alter>
					<octave>6</octave>
				</pitch>
				<duration>16</duration>
				<type>whole</type>
				<accidental>flat</accidental>
				<notations>
					<articulations />
				</notations>
			</note>
		</measure>
		<measure number="23">
			<attributes>
				<divisions>4</divisions>
			</attributes>
			<note>
				<pitch>
					<step>C</step>
					<alter>0</alter>
					<octave>7</octave>
				</pitch>
				<duration>16</duration>
				<type>whole</type>
				<notations>
					<articulations />
				</notations>
			</note>
		</measure>
		<measure number="24">
			<attributes>
				<divisions>4</divisions>
			</attributes>
			<note>
				<pitch>
					<step>A</step>
					<alter>0</alter>
					<octave>6</octave>
				</pitch>
				<duration>16</duration>
				<type>whole</type>
				<notations>
					<articulations />
				</notations>
			</note>
		</measure>
		<measure number="25">
			<attributes>
				<divisions>4</divisions>
			</attributes>
			<note>
				<pitch>
					<step>A</step>
					<alter>0</alter>
					<octave>6</octave>
				</pitch>
				<duration>16</duration>
				<type>whole</type>
				<notations>
					<articulations />
				</notations>
			</note>
		</measure>
		<measure number="26">
			<attributes>
				<divisions>4</divisions>
			</attributes>
			<note>
				<pitch>
					<step>G</step>
					<alter>0</alter>
					<octave>6</octave>
				</pitch>
				<duration>16</duration>
				<type>whole</type>
				<notations>
					<articulations />
				</notations>
			</note>
		</measure>
		<measure number="27">
			<attributes>
				<divisions>4</divisions>
			</attributes>
			<note>
				<pitch>
					<step>G</step>
					<alter>0</alter>
					<octave>6</octave>
				</pitch>
				<duration>16</duration>
				<type>whole</type>
				<notations>
					<articulations />
				</notations>
			</note>
		</measure>
		<measure number="28">
			<attributes>
				<divisions>4</divisions>
			</attributes>
			<note>
				<pitch>
					<step>B</step>
					<alter>0</alter>
					<octave>6</octave>
				</pitch>
				<duration>16</duration>
				<type>whole</type>
				<notations>
					<articulations />
				</notations>
			</note>
		</measure>
		<measure number="29">
			<attributes>
				<divisions>4</divisions>
			</attributes>
			<note>
				<pitch>
					<step>D</step>
					<alter>0</alter>
					<octave>6</octave>
				</pitch>
				<duration>16</duration>
				<type>whole</type>
				<notations>
					<articulations />
				</notations>
			</note>
		</measure>
		<measure number="30">
			<attributes>
				<divisions>4</divisions>
			</attributes>
			<note>
				<pitch>
					<step>G</step>
					<alter>0</alter>
					<octave>6</octave>
				</pitch>
				<duration>16</duration>
				<type>whole</type>
				<notations>
					<articulations />
				</notations>
			</note>
		</measure>
		<measure number="31">
			<attributes>
				<divisions>4</divisions>
			</attributes>
			<note>
				<pitch>
					<step>G</step>
					<alter>0</alter>
					<octave>5</octave>
				</pitch>
				<duration>12</duration>
				<type>half</type>
				<dot />
				<notations>
					<articulations />
				</notations>
			</note>
			<note>
				<pitch>
					<step>A</step>
					<alter>0</alter>
					<octave>5</octave>
				</pitch>
				<duration>4</duration>
				<type>quarter</type>
				<notations>
					<articulations />
				</notations>
			</note>
		</measure>
		<measure number="32">
			<attributes>
				<divisions>4</divisions>
			</attributes>
			<note>
				<pitch>
					<step>B</step>
					<alter>0</alter>
					<octave>5</octave>
				</pitch>
				<duration>16</duration>
				<type>whole</type>
				<notations>
					<articulations />
				</notations>
			</note>
			<note>
				<chord />
				<pitch>
					<step>E</step>
					<alter>0</alter>
					<octave>6</octave>
				</pitch>
				<duration>16</duration>
				<type>whole</type>
				<notations>
					<articulations />
				</notations>
			</note>
			<note>
				<chord />
				<pitch>
					<step>B</step>
					<alter>0</alter>
					<octave>6</octave>
				</pitch>
				<duration>16</duration>
				<type>whole</type>
				<notations>
					<articulations />
				</notations>
			</note>
			<barline>
				<bar-style>light-heavy</bar-style>
			</barline>
		</measure>
	</part>
	<part id="P2">
		<measure number="1">
			<attributes>
				<divisions>4</divisions>
				<key>
					<fifths>0</fifths>
					<mode>major</mode>
				</key>
				<time>
					<beats>4</beats>
					<beat-type>4</beat-type>
				</time>
				<clef number="1">
					<sign>G</sign>
					<line>2</line>
				</clef>
			</attributes>
			<direction>
				<direction-type>
					<metronome>
						<beat-unit>quarter</beat-unit>
						<per-minute>120</per-minute>
					</metronome>
				</direction-type>
				<offset sound="yes">0</offset>
				<sound tempo="120.000000" />
			</direction>
			<note>
				<rest />
				<duration>16</duration>
				<type>whole</type>
				<notations>
					<ornaments />
					<technical />
					<articulations />
				</notations>
			</note>
		</measure>
		<measure number="2">
			<attributes>
				<divisions>4</divisions>
			</attributes>
			<note>
				<rest />
				<duration>16</duration>
				<type>whole</type>
				<notations>
					<ornaments />
					<technical />
					<articulations />
				</notations>
			</note>
		</measure>
		<measure number="3">
			<attributes>
				<divisions>4</divisions>
			</attributes>
			<note>
				<rest />
				<duration>16</duration>
				<type>whole</type>
				<notations>
					<ornaments />
					<technical />
					<articulations />
				</notations>
			</note>
		</measure>
		<measure number="4">
			<attributes>
				<divisions>4</divisions>
			</attributes>
			<note>
				<rest />
				<duration>16</duration>
				<type>whole</type>
				<notations>
					<ornaments />
					<technical />
					<articulations />
				</notations>
			</note>
		</measure>
		<measure number="5">
			<attributes>
				<divisions>4</divisions>
			</attributes>
			<note>
				<rest />
				<duration>16</duration>
				<type>whole</type>
				<notations>
					<ornaments />
					<technical />
					<articulations />
				</notations>
			</note>
		</measure>
		<measure number="6">
			<attributes>
				<divisions>4</divisions>
			</attributes>
			<note>
				<rest />
				<duration>16</duration>
				<type>whole</type>
				<notations>
					<ornaments />
					<technical />
					<articulations />
				</notations>
			</note>
		</measure>
		<measure number="7">
			<attributes>
				<divisions>4</divisions>
			</attributes>
			<note>
				<rest />
				<duration>16</duration>
				<type>whole</type>
				<notations>
					<ornaments />
					<technical />
					<articulations />
				</notations>
			</note>
		</measure>
		<measure number="8">
			<attributes>
				<divisions>4</divisions>
			</attributes>
			<note>
				<rest />
				<duration>16</duration>
				<type>whole</type>
				<notations>
					<ornaments />
					<technical />
					<articulations />
				</notations>
			</note>
		</measure>
		<measure number="9">
			<attributes>
				<divisions>4</divisions>
			</attributes>
			<note>
				<rest />
				<duration>16</duration>
				<type>whole</type>
				<notations>
					<ornaments />
					<technical />
					<articulations />
				</notations>
			</note>
		</measure>
		<measure number="10">
			<attributes>
				<divisions>4</divisions>
			</attributes>
			<note>
				<rest />
				<duration>16</duration>
				<type>whole</type>
				<notations>
					<ornaments />
					<technical />
					<articulations />
				</notations>
			</note>
		</measure>
		<measure number="11">
			<attributes>
				<divisions>4</divisions>
			</attributes>
			<note>
				<rest />
				<duration>16</duration>
				<type>whole</type>
				<notations>
					<ornaments />
					<technical />
					<articulations />
				</notations>
			</note>
		</measure>
		<measure number="12">
			<attributes>
				<divisions>4</divisions>
			</attributes>
			<note>
				<rest />
				<duration>16</duration>
				<type>whole</type>
				<notations>
					<ornaments />
					<technical />
					<articulations />
				</notations>
			</note>
		</measure>
		<measure number="13">
			<attributes>
				<divisions>4</divisions>
			</attributes>
			<note>
				<rest />
				<duration>16</duration>
				<type>whole</type>
				<notations>
					<ornaments />
					<technical />
					<articulations />
				</notations>
			</note>
		</measure>
		<measure number="14">
			<attributes>
				<divisions>4</divisions>
			</attributes>
			<note>
				<rest />
				<duration>16</duration>
				<type>whole</type>
				<notations>
					<ornaments />
					<technical />
					<articulations />
				</notations>
			</note>
		</measure>
		<measure number="15">
			<attributes>
				<divisions>4</divisions>
			</attributes>
			<note>
				<rest />
				<duration>16</duration>
				<type>whole</type>
				<notations>
					<ornaments />
					<technical />
					<articulations />
				</notations>
			</note>
		</measure>
		<measure number="16">
			<attributes>
				<divisions>4</divisions>
			</attributes>
			<note>
				<pitch>
					<step>A</step>
					<alter>0</alter>
					<octave>4</octave>
				</pitch>
				<duration>16</duration>
				<type>whole</type>
				<notations>
					<articulations />
				</notations>
			</note>
		</measure>
		<measure number="17">
			<attributes>
				<divisions>4</divisions>
			</attributes>
			<note>
				<pitch>
					<step>F</step>
					<alter>1</alter>
					<octave>5</octave>
				</pitch>
				<duration>16</duration>
				<type>whole</type>
				<accidental>sharp</accidental>
				<notations>
					<articulations />
				</notations>
			</note>
		</measure>
		<measure number="18">
			<attributes>
				<divisions>4</divisions>
			</attributes>
			<note>
				<pitch>
					<step>D</step>
					<alter>0</alter>
					<octave>5</octave>
				</pitch>
				<duration>16</duration>
				<type>whole</type>
				<notations>
					<articulations />
				</notations>
			</note>
		</measure>
		<measure number="19">
			<attributes>
				<divisions>4</divisions>
			</attributes>
			<note>
				<pitch>
					<step>E</step>
					<alter>-1</alter>
					<octave>5</octave>
				</pitch>
				<duration>16</duration>
				<type>whole</type>
				<accidental>flat</accidental>
				<notations>
					<articulations />
				</notations>
			</note>
		</measure>
		<measure number="20">
			<attributes>
				<divisions>4</divisions>
			</attributes>
			<note>
				<pitch>
					<step>C</step>
					<alter>1</alter>
					<octave>5</octave>
				</pitch>
				<duration>16</duration>
				<type>whole</type>
				<accidental>sharp</accidental>
				<notations>
					<articulations />
				</notations>
			</note>
		</measure>
		<measure number="21">
			<attributes>
				<divisions>4</divisions>
			</attributes>
			<note>
				<pitch>
					<step>B</step>
					<alter>-1</alter>
					<octave>4</octave>
				</pitch>
				<duration>16</duration>
				<type>whole</type>
				<accidental>flat</accidental>
				<notations>
					<articulations />
				</notations>
			</note>
		</measure>
		<measure number="22">
			<attributes>
				<divisions>4</divisions>
			</attributes>
			<note>
				<pitch>
					<step>E</step>
					<alter>-1</alter>
					<octave>5</octave>
				</pitch>
				<duration>16</duration>
				<type>whole</type>
				<accidental>flat</accidental>
				<notations>
					<articulations />
				</notations>
			</note>
		</measure>
		<measure number="23">
			<attributes>
				<divisions>4</divisions>
			</attributes>
			<note>
				<pitch>
					<step>G</step>
					<alter>0</alter>
					<octave>5</octave>
				</pitch>
				<duration>16</duration>
				<type>whole</type>
				<notations>
					<articulations />
				</notations>
			</note>
		</measure>
		<measure number="24">
			<attributes>
				<divisions>4</divisions>
			</attributes>
			<note>
				<pitch>
					<step>A</step>
					<alter>-1</alter>
					<octave>5</octave>
				</pitch>
				<duration>16</duration>
				<type>whole</type>
				<accidental>flat</accidental>
				<notations>
					<articulations />
				</notations>
			</note>
		</measure>
		<measure number="25">
			<attributes>
				<divisions>4</divisions>
			</attributes>
			<note>
				<pitch>
					<step>E</step>
					<alter>-1</alter>
					<octave>5</octave>
				</pitch>
				<duration>16</duration>
				<type>whole</type>
				<accidental>flat</accidental>
				<notations>
					<articulations />
				</notations>
			</note>
		</measure>
		<measure number="26">
			<attributes>
				<divisions>4</divisions>
			</attributes>
			<note>
				<pitch>
					<step>B</step>
					<alter>-1</alter>
					<octave>4</octave>
				</pitch>
				<duration>16</duration>
				<type>whole</type>
				<accidental>flat</accidental>
				<notations>
					<articulations />
				</notations>
			</note>
		</measure>
		<measure number="27">
			<attributes>
				<divisions>4</divisions>
			</attributes>
			<note>
				<pitch>
					<step>G</step>
					<alter>0</alter>
					<octave>4</octave>
				</pitch>
				<duration>16</duration>
				<type>whole</type>
				<notations>
					<articulations />
				</notations>
			</note>
		</measure>
		<measure number="28">
			<attributes>
				<divisions>4</divisions>
			</attributes>
			<note>
				<pitch>
					<step>E</step>
					<alter>0</alter>
					<octave>5</octave>
				</pitch>
				<duration>16</duration>
				<type>whole</type>
				<notations>
					<articulations />
				</notations>
			</note>
		</measure>
		<measure number="29">
			<attributes>
				<divisions>4</divisions>
			</attributes>
			<note>
				<pitch>
					<step>F</step>
					<alter>1</alter>
					<octave>5</octave>
				</pitch>
				<duration>16</duration>
				<type>whole</type>
				<accidental>sharp</accidental>
				<notations>
					<articulations />
				</notations>
			</note>
		</measure>
		<measure number="30">
			<attributes>
				<divisions>4</divisions>
			</attributes>
			<note>
				<pitch>
					<step>E</step>
					<alter>0</alter>
					<octave>5</octave>
				</pitch>
				<duration>16</duration>
				<type>whole</type>
				<notations>
					<articulations />
				</notations>
			</note>
		</measure>
		<measure number="31">
			<attributes>
				<divisions>4</divisions>
			</attributes>
			<note>
				<rest />
				<duration>16</duration>
				<type>whole</type>
				<notations>
					<ornaments />
					<technical />
					<articulations />
				</notations>
			</note>
		</measure>
		<measure number="32">
			<attributes>
				<divisions>4</divisions>
			</attributes>
			<note>
				<pitch>
					<step>G</step>
					<alter>0</alter>
					<octave>4</octave>
				</pitch>
				<duration>16</duration>
				<type>whole</type>
				<notations>
					<articulations />
				</notations>
			</note>
			<note>
				<chord />
				<pitch>
					<step>E</step>
					<alter>0</alter>
					<octave>5</octave>
				</pitch>
				<duration>16</duration>
				<type>whole</type>
				<notations>
					<articulations />
				</notations>
			</note>
			<note>
				<chord />
				<pitch>
					<step>G</step>
					<alter>0</alter>
					<octave>5</octave>
				</pitch>
				<duration>16</duration>
				<type>whole</type>
				<notations>
					<articulations />
				</notations>
			</note>
			<barline>
				<bar-style>light-heavy</bar-style>
			</barline>
		</measure>
	</part>
</score-partwise>
